<svg height="30" viewBox="0 0 36 30" width="36" xmlns="http://www.w3.org/2000/svg"><path d="m921.807773 4693.86325-.000158-.00032c2.213363.14962 3.900867 2.06257 3.7119 4.23787l-.9375 9.11288c-.0366.9375-.7866 1.72559-1.7622 1.8003-2.324625.1875-4.161525.30029-6.637125.30029-2.473875 0-4.312425-.11279-6.637125-.30029h-.074707c.074707-.2256.149415-.4878.149415-.75l.9756-11.211749999999v-.03809c.0381-1.088400000001-.2256-2.1387-.75-3.038100000001.2637-.038079999999.525892-.112789999999.7881-.112789999999l.8247-.03808c.375 0 .750007.0747 1.0503.2622 1.0488.7119 2.3247 1.125 3.7119 1.125 1.3491 0 2.625-.4131 3.7119-1.125.3003-.1875.6753-.30029 1.0503-.2622zm.03825-5.475750000001c0 3.10695-2.51805 5.625-5.625 5.625s-5.625-2.51805-5.625-5.625 2.51805-5.625 5.625-5.625 5.625 2.518050000001 5.625 5.625zm-16.35075 4.163250000001h-.00045c2.32635.149619999999 4.050457 2.137269999999 3.97575 4.42537l-.9756 11.211749999999c-.0366.975600000001-.8247 1.8003-1.8369 1.875-2.4375.224130000001-4.3506.336920000001-6.9375.336920000001-2.5485 0-4.46175-.111330000001-6.89925-.336920000001-.9741-.0747-1.762193-.8628-1.8369-1.875l-.9756-11.211749999999c-.14925-2.288170000001 1.6128-4.27596 3.9375-4.42537l.8247-.03809c.375-.03808.786607.03663 1.0869.26221 1.125075.75 2.4375 1.1631 3.862875 1.1631s2.737875-.4131 3.862875-1.1631c.3369-.1875.7119-.30029 1.0869-.26221zm.03825-5.7015c0 3.23145-2.61915 5.85075-5.85075 5.85075-3.229988 0-5.84925-2.61915-5.84925-5.85075 0-3.22999 2.61915-5.84925 5.84925-5.84925 3.23145 0 5.85075 2.61915 5.85075 5.84925z" fill="#cebee7" fill-rule="evenodd" transform="translate(-890 -4681)"/></svg>