<svg height="39" viewBox="0 0 36 39" width="36" xmlns="http://www.w3.org/2000/svg"><path d="m924.344589 4859.65277c-1.083765-.63423-2.374055-.57602-3.373588.03842l-8.006519-5.729899999999c.000662-.0005.001159-.000840000001.00182-.00134l10.930483-7.82214c.537331-.38464.696859-1.12086.36804-1.69822-.327331-.57469-1.032795-.80164-1.627054-.52353l-12.153585 5.686290000001-.001986.001-.950714-10.54425c.723502-.49769 1.198942-1.33808 1.198942-2.29136 0-1.52846-1.222441-2.76774-2.730511-2.76774-1.507904 0-2.73051 1.23928-2.73051 2.76774 0 .95328.475605 1.79367 1.199107 2.29136l-.950879 10.54425-8.898652-4.16352c.02532-1.18459-.570097-2.34637-1.653862-2.9806-1.583034-.92644-3.607253-.37658-4.521229 1.22787-.913811 1.60462-.371515 3.65644 1.211519 4.58287 1.083765.634239999999 2.374055.57586 3.373588-.03841l8.006353 5.72973h.000166c-.000662.0005-.001159.00084-.00182.00134l-10.967055 7.84831c-.516646.36987-.670051 1.07791-.353808 1.63314l.039551.06927c.317567.55758 1.001849.77766 1.578566.50793l12.184862-5.70088.001821-.00101 1.323884 14.68061h2.316797l1.323884-14.68061 8.898651 4.163530000001c-.025154 1.18459.570263 2.3462 1.654028 2.9806 1.583034.92644 3.607253.37658 4.521229-1.22804.913811-1.604450000001.371515-3.65643-1.211519-4.582710000001" fill="#cebee7" fill-rule="evenodd" transform="translate(-890 -4834)"/></svg>