<svg height="151" viewBox="0 0 421 151" width="421" xmlns="http://www.w3.org/2000/svg"><path d="m1431.66791 831.923236c-4.3336 4.357688-10.32984 7.060214-16.95791 7.076764-13.2217 0-23.94-10.718303-23.94-23.94s10.7183-23.94 23.94-23.94c6.84817 0 13.02475 2.875416 17.38827 7.484778.25451.22343.49579.465404.72173.725222 14.34527 15.391738 18.19641 37.825487 9.80568 57.120252s-27.42543 31.776133-48.46568 31.779748v-.04c-27.91343-.005766-51.01139-21.714166-52.74682-49.573599-1.73543-27.859432 18.48989-52.266539 46.18682-55.736401 4.17527-.516386 7.97861 2.449727 8.495 6.625s-2.44973 7.978614-6.625 8.495c-17.27238 2.165716-30.81133 15.884264-32.74925 33.183685-1.93791 17.299421 8.22997 33.67366 24.59502 39.607513 16.36505 5.933854 34.66459-.118294 44.26461-14.639491 4.86375-7.357021 6.85262-15.91703 6.08753-24.228471zm-326.60791-39.363236c6.16667 6.8 9.25 16.926667 9.25 30.38v57c .13872 2.299941-.70018 4.55153-2.31 6.2-1.65941 1.517099-3.85394 2.312164-6.1 2.21-2.31295.127627-4.58212-.667124-6.31-2.21-1.6109-1.647785-2.44998-3.89987-2.31-6.2v-56.58c0-9.113333-1.85667-15.84-5.57-20.18s-9.63667-6.513333-17.77-6.52c-9.39333 0-16.89333 2.873333-22.5 8.62s-8.42 13.526667-8.44 23.34v51.3c.13977 2.281586-.65856 4.521249-2.21 6.2-1.67937 1.550424-3.91858 2.348596-6.2 2.21-2.31295.127627-4.58212-.667124-6.31-2.21-1.59996-1.652894-2.42791-3.904342-2.28-6.2v-133.72c-.06925-2.218433.81108-4.361069 2.42-5.89 1.67652-1.565025 3.90816-2.39649 6.2-2.31 2.28142-.138596 4.52063.659576 6.2 2.21 1.51479 1.614805 2.30254 3.779305 2.18 5.99v55.09c3.19803-5.998348 8.11486-10.904733 14.12-14.09 6.35928-3.305743 13.444-4.9695 20.61-4.84 12.04667 0 21.15667 3.4 27.33 10.2zm118.56 72.86c1.15149 1.343075 1.75173 3.072337 1.68 4.84 0 3.506667-2.45333 6.73-7.36 9.67-5.00705 2.924858-10.39013 5.15211-16 6.62-5.34905 1.438007-10.8611 2.180789-16.4 2.21-15.84 0-28.35-4.696667-37.53-14.09s-13.77-22.36-13.77-38.9c0-10.513333 2.03333-19.8 6.1-27.86 3.81181-7.778959 9.76507-14.308111 17.16-18.82 7.58315-4.547655 16.28901-6.879148 25.13-6.73 13.33333 0 23.91667 4.333333 31.75 13s11.75667 20.44 11.77 35.32c0 2.806667-.56 4.84-1.68 6.1s-2.94333 1.903333-5.47 1.93h-67.7c1.26 24.113333 12.68333 36.166667 34.27 36.16 4.79088.10946 9.5627-.638995 14.09-2.21 4.35295-1.67657 8.57183-3.682376 12.62-6 3.64-2.1 6.09333-3.15 7.36-3.15 1.54514.011189 3.00461.711589 3.98 1.91zm-62.34-61.42c-5.4 5.606667-8.59 13.526667-9.57 23.76h59.5c-.28-10.373333-2.87333-18.326667-7.78-23.86s-11.77667-8.303333-20.61-8.31c-8.96667.013333-16.14667 2.816667-21.54 8.41zm89.26 82.13c-1.66886-1.617102-2.5521-3.879944-2.42-6.2v-133.52c-.1321-2.320056.75114-4.582898 2.42-6.2 1.70514-1.507288 3.9259-2.298884 6.2-2.21 2.21038-.066 4.36054.725976 6 2.21 1.66886 1.617102 2.5521 3.879944 2.42 6.2v133.51c.1321 2.320056-.75114 4.582898-2.42 6.2-1.63946 1.484024-3.78962 2.276-6 2.21-2.27274.091625-4.49333-.696328-6.2-2.2zm50.83-120.26c-2.12443-2.016632-3.273-4.853422-3.15-7.78-.09337-2.859992 1.05532-5.62049 3.15-7.57 4.76176-3.926058 11.63824-3.926058 16.4 0 2.09468 1.94951 3.24337 4.710008 3.15 7.57.123 2.926578-1.02557 5.763368-3.15 7.78-4.76176 3.926058-11.63824 3.926058-16.4 0zm2 120.26c-1.66886-1.617102-2.5521-3.879944-2.42-6.2v-88.74c-.1321-2.320056.75114-4.582898 2.42-6.2 1.70514-1.507288 3.9259-2.298884 6.2-2.21 2.24606-.102164 4.44059.692901 6.1 2.21 1.60982 1.64847 2.44872 3.900059 2.31 6.2v88.73c0 2.806667-.77 4.91-2.31 6.31-1.69062 1.453185-3.87312 2.204539-6.1 2.1-2.27274.091625-4.49333-.696328-6.2-2.2zm111.34-79.81c-4.82697 0-8.74 3.913031-8.74 8.74s3.91303 8.74 8.74 8.74 8.74-3.913031 8.74-8.74c-.022-4.812964-3.92699-8.70455-8.74-8.71z" fill="#fff" transform="translate(-1026 -738)"/></svg>